<svg width="209" height="140" viewBox="0 0 209 140" fill="none" xmlns="http://www.w3.org/2000/svg">
<path d="M71.0754 57.5532C72.3293 58.0385 73.6267 58.4371 74.9364 58.7418C79.8164 59.8773 84.348 62.6399 87.6394 66.915C90.6032 70.7643 92.1213 75.2676 92.28 79.7756C98.4137 67.1653 87.2959 54.6631 72.3232 38.4889C55.2284 20.0224 75.9573 0 75.9573 0C46.0606 18.7692 48.7633 48.9155 71.0754 57.5532Z" fill="#F40000"/>
<path d="M66.0049 59.5824C67.3445 59.6959 68.7022 59.7137 70.0443 59.6382C75.0474 59.3566 80.1751 60.7342 84.5392 63.9117C88.4687 66.7726 91.1957 70.6673 92.6193 74.9484C94.9485 61.1246 80.7542 52.2517 61.8252 40.9383C40.2135 28.0213 54.4572 2.98486 54.4572 2.98486C31.0631 29.3947 42.1588 57.5626 66.0049 59.5824Z" fill="#F40000"/>
<path d="M61.712 62.9543C63.0297 62.6868 64.337 62.3223 65.604 61.8727C70.3252 60.197 75.6339 60.0784 80.7176 61.9012C85.2952 63.5425 89.0101 66.5135 91.5837 70.2215C89.92 56.3025 73.7971 51.776 52.4429 46.2383C28.0619 39.9156 34.6686 11.8896 34.6686 11.8896C19.6689 43.8043 38.2601 67.7159 61.7116 62.9543H61.712Z" fill="#F40000"/>
<path d="M58.5428 67.3956C59.7319 66.7685 60.8837 66.0519 61.9725 65.2643C66.0302 62.3299 71.0909 60.7244 76.4833 61.0452C81.3385 61.3339 85.7415 63.1413 89.2567 65.9763C83.7345 53.0874 66.987 53.274 44.9345 53.9596C19.7562 54.7425 18.1915 25.9937 18.1915 25.9937C12.7993 60.8319 37.3829 78.5534 58.5428 67.3956Z" fill="#F40000"/>
<path d="M56.755 72.5481C57.7187 71.6127 58.6226 70.6005 59.4449 69.5394C62.511 65.5836 66.9142 62.6215 72.179 61.4142C76.9195 60.3272 81.6539 60.8243 85.8266 62.5571C76.8927 51.7408 60.875 56.6251 39.9076 63.4788C15.9684 71.304 6.35858 44.1572 6.35858 44.1572C11.0101 79.1018 39.5976 89.1996 56.755 72.5481Z" fill="#F40000"/>
<path d="M56.4925 77.9942C57.1538 76.8254 57.7352 75.6009 58.2252 74.3513C60.0515 69.6942 63.4414 65.6146 68.1528 62.9771C72.3949 60.6021 77.0782 59.749 81.5708 60.2394C69.9476 52.3708 55.9551 61.5575 37.7686 74.0252C17.0042 88.2598 0.126831 64.9106 0.126831 64.9106C14.4456 97.1349 44.725 98.793 56.4925 77.9942Z" fill="#F40000"/>
<path d="M57.7767 83.2941C58.0816 81.9869 58.2942 80.6487 58.4119 79.3119C58.851 74.3298 60.9531 69.4627 64.7301 65.608C68.1309 62.1372 72.3842 60.0028 76.8335 59.2113C63.461 54.9264 52.6253 67.6729 38.6903 84.7459C22.7803 104.239 0 86.5756 0 86.5756C22.8285 113.474 52.3511 106.558 57.7767 83.2941Z" fill="#F40000"/>
<path d="M60.5037 88.0187C60.4276 86.6788 60.254 85.335 59.99 84.0189C59.0062 79.115 59.6506 73.854 62.1877 69.0941C64.4721 64.8084 67.9515 61.5652 71.9976 59.5556C57.9574 59.201 51.1548 74.4764 42.5986 94.7741C32.8295 117.949 5.98889 107.4 5.98889 107.4C35.4804 126.797 61.8585 111.866 60.5037 88.0187Z" fill="#F40000"/>
<path d="M64.4529 91.7859C64.002 90.5213 63.4564 89.2808 62.8321 88.0923C60.5049 83.6629 59.6397 78.4338 60.7318 73.1536C61.7152 68.3993 64.1391 64.3099 67.4549 61.2446C53.8824 64.8489 51.6632 81.418 49.1774 103.299C46.3392 128.281 17.6088 125.7 17.6088 125.7C51.3785 136.027 72.479 114.289 64.4529 91.7859Z" fill="#F40000"/>
<path d="M69.3051 94.2915C68.5158 93.2048 67.6423 92.1676 66.7078 91.2026C63.2257 87.6063 60.9206 82.8317 60.4792 77.4583C60.0819 72.62 61.2544 68.0148 63.5716 64.1421C51.5645 71.414 54.1082 87.9364 57.894 109.631C62.2166 134.4 33.92 139.995 33.92 139.995C69.2367 140.417 83.3529 113.629 69.3051 94.2915Z" fill="#F40000"/>
<path d="M119.12 110H110.912L97.184 89.216V110H88.976V76.304H97.184L110.912 97.184V76.304H119.12V110ZM129.198 80.432C127.758 80.432 126.574 80.016 125.646 79.184C124.75 78.32 124.302 77.264 124.302 76.016C124.302 74.736 124.75 73.68 125.646 72.848C126.574 71.984 127.758 71.552 129.198 71.552C130.606 71.552 131.758 71.984 132.654 72.848C133.582 73.68 134.046 74.736 134.046 76.016C134.046 77.264 133.582 78.32 132.654 79.184C131.758 80.016 130.606 80.432 129.198 80.432ZM133.278 83.216V110H125.07V83.216H133.278ZM155.066 110L149.93 102.56L145.61 110H136.73L145.562 96.32L136.49 83.216H145.706L150.842 90.608L155.162 83.216H164.042L155.066 96.704L164.282 110H155.066ZM171.573 80.432C170.133 80.432 168.949 80.016 168.021 79.184C167.125 78.32 166.677 77.264 166.677 76.016C166.677 74.736 167.125 73.68 168.021 72.848C168.949 71.984 170.133 71.552 171.573 71.552C172.981 71.552 174.133 71.984 175.029 72.848C175.957 73.68 176.421 74.736 176.421 76.016C176.421 77.264 175.957 78.32 175.029 79.184C174.133 80.016 172.981 80.432 171.573 80.432ZM175.653 83.216V110H167.445V83.216H175.653ZM206.849 96.176C206.849 96.944 206.801 97.744 206.705 98.576H188.129C188.257 100.24 188.785 101.52 189.713 102.416C190.673 103.28 191.841 103.712 193.217 103.712C195.265 103.712 196.689 102.848 197.489 101.12H206.225C205.777 102.88 204.961 104.464 203.777 105.872C202.625 107.28 201.169 108.384 199.409 109.184C197.649 109.984 195.681 110.384 193.505 110.384C190.881 110.384 188.545 109.824 186.497 108.704C184.449 107.584 182.849 105.984 181.697 103.904C180.545 101.824 179.969 99.392 179.969 96.608C179.969 93.824 180.529 91.392 181.649 89.312C182.801 87.232 184.401 85.632 186.449 84.512C188.497 83.392 190.849 82.832 193.505 82.832C196.097 82.832 198.401 83.376 200.417 84.464C202.433 85.552 204.001 87.104 205.121 89.12C206.273 91.136 206.849 93.488 206.849 96.176ZM198.449 94.016C198.449 92.608 197.969 91.488 197.009 90.656C196.049 89.824 194.849 89.408 193.409 89.408C192.033 89.408 190.865 89.808 189.905 90.608C188.977 91.408 188.401 92.544 188.177 94.016H198.449Z" fill="black"/>
</svg>
