<svg width="48" height="48" viewBox="0 0 48 48" fill="none" xmlns="http://www.w3.org/2000/svg">
<path d="M24.0009 6.5459C19.2607 6.5459 18.6658 6.56663 16.804 6.65135C14.9459 6.73644 13.6776 7.03063 12.5678 7.46226C11.4198 7.90808 10.446 8.50444 9.47587 9.47499C8.50499 10.4452 7.90864 11.419 7.46138 12.5666C7.02867 13.6768 6.73413 14.9455 6.6505 16.803C6.56723 18.6648 6.54541 19.2601 6.54541 24.0004C6.54541 28.7408 6.5665 29.3339 6.65086 31.1957C6.73631 33.0539 7.03049 34.3223 7.46175 35.4321C7.90791 36.5801 8.50426 37.5539 9.47478 38.5241C10.4446 39.495 11.4184 40.0928 12.5656 40.5386C13.6761 40.9703 14.9448 41.2644 16.8026 41.3495C18.6643 41.4343 19.2588 41.455 23.9987 41.455C28.7393 41.455 29.3324 41.4343 31.1941 41.3495C33.0522 41.2644 34.322 40.9703 35.4325 40.5386C36.5801 40.0928 37.5525 39.495 38.5223 38.5241C39.4931 37.5539 40.0895 36.5801 40.5367 35.4324C40.9658 34.3223 41.2604 33.0535 41.3476 31.1961C41.4313 29.3343 41.4531 28.7408 41.4531 24.0004C41.4531 19.2601 41.4313 18.6652 41.3476 16.8034C41.2604 14.9452 40.9658 13.6768 40.5367 12.567C40.0895 11.419 39.4931 10.4452 38.5223 9.47499C37.5514 8.50408 36.5805 7.90772 35.4314 7.46226C34.3188 7.03063 33.0497 6.73644 31.1916 6.65135C29.3298 6.56663 28.7371 6.5459 23.9954 6.5459H24.0009ZM22.4351 9.69135C22.8998 9.69063 23.4184 9.69135 24.0009 9.69135C28.6611 9.69135 29.2135 9.70808 31.0538 9.79172C32.7555 9.86953 33.6791 10.1539 34.2944 10.3928C35.1089 10.7092 35.6896 11.0874 36.3001 11.6983C36.911 12.3092 37.2892 12.891 37.6063 13.7055C37.8452 14.3201 38.1299 15.2437 38.2074 16.9455C38.291 18.7855 38.3092 19.3383 38.3092 23.9964C38.3092 28.6546 38.291 29.2074 38.2074 31.0474C38.1295 32.7492 37.8452 33.6728 37.6063 34.2874C37.2899 35.1019 36.911 35.6819 36.3001 36.2924C35.6893 36.9034 35.1093 37.2815 34.2944 37.5979C33.6799 37.8379 32.7555 38.1215 31.0538 38.1994C29.2138 38.283 28.6611 38.3012 24.0009 38.3012C19.3403 38.3012 18.7879 38.283 16.948 38.1994C15.2462 38.1208 14.3226 37.8364 13.707 37.5975C12.8925 37.2812 12.3107 36.903 11.6998 36.2921C11.0889 35.6812 10.7107 35.1008 10.3937 34.2859C10.1548 33.6714 9.87004 32.7477 9.79258 31.0459C9.70895 29.2059 9.69222 28.6532 9.69222 23.9921C9.69222 19.331 9.70895 18.7812 9.79258 16.9412C9.8704 15.2394 10.1548 14.3157 10.3937 13.7004C10.71 12.8859 11.0889 12.3041 11.6998 11.6932C12.3107 11.0823 12.8925 10.7041 13.707 10.387C14.3223 10.147 15.2462 9.86335 16.948 9.78517C18.5581 9.71244 19.1821 9.69063 22.4351 9.68699V9.69135ZM33.3177 12.5895C32.1614 12.5895 31.2232 13.5266 31.2232 14.6834C31.2232 15.8397 32.1614 16.7779 33.3177 16.7779C34.474 16.7779 35.4122 15.8397 35.4122 14.6834C35.4122 13.527 34.474 12.5888 33.3177 12.5888V12.5895ZM24.0009 15.0368C19.0508 15.0368 15.0375 19.0503 15.0375 24.0004C15.0375 28.9506 19.0508 32.9623 24.0009 32.9623C28.9509 32.9623 32.9628 28.9506 32.9628 24.0004C32.9628 19.0503 28.9505 15.0368 24.0005 15.0368H24.0009ZM24.0009 18.1823C27.2139 18.1823 29.8189 20.787 29.8189 24.0004C29.8189 27.2135 27.2139 29.8186 24.0009 29.8186C20.7875 29.8186 18.1829 27.2135 18.1829 24.0004C18.1829 20.787 20.7875 18.1823 24.0009 18.1823Z" fill="white"/>
</svg>
