<svg width="280" height="158" viewBox="0 0 280 158" fill="none" xmlns="http://www.w3.org/2000/svg">
<path d="M106.576 57.5532C107.829 58.0385 109.127 58.4371 110.437 58.7418C115.317 59.8773 119.848 62.6399 123.14 66.915C126.103 70.7643 127.621 75.2676 127.78 79.7756C133.914 67.1653 122.796 54.6631 107.823 38.4889C90.7286 20.0224 111.457 0 111.457 0C81.5608 18.7692 84.2635 48.9155 106.576 57.5532Z" fill="#002BB7"/>
<path d="M101.505 59.582C102.845 59.6954 104.202 59.7133 105.544 59.6377C110.547 59.3561 115.675 60.7338 120.039 63.9112C123.969 66.7721 126.696 70.6668 128.119 74.9479C130.449 61.1241 116.254 52.2512 97.3254 40.9378C75.7136 28.0208 89.9573 2.98438 89.9573 2.98438C66.5633 29.3942 77.6589 57.5621 101.505 59.582Z" fill="#002BB7"/>
<path d="M97.2124 62.9543C98.5301 62.6868 99.8373 62.3223 101.104 61.8727C105.826 60.197 111.134 60.0784 116.218 61.9012C120.796 63.5425 124.51 66.5135 127.084 70.2215C125.42 56.3025 109.297 51.776 87.9432 46.2383C63.5622 39.9156 70.1689 11.8896 70.1689 11.8896C55.1692 43.8043 73.7605 67.7159 97.2119 62.9543H97.2124Z" fill="#002BB7"/>
<path d="M94.0426 67.3961C95.2317 66.769 96.3835 66.0524 97.4723 65.2648C101.53 62.3304 106.591 60.7249 111.983 61.0457C116.838 61.3344 121.241 63.1418 124.756 65.9768C119.234 53.0879 102.487 53.2744 80.4344 53.9601C55.256 54.743 53.6913 25.9941 53.6913 25.9941C48.2991 60.8324 72.8827 78.5539 94.0426 67.3961Z" fill="#002BB7"/>
<path d="M92.2548 72.5481C93.2185 71.6127 94.1224 70.6005 94.9447 69.5394C98.0108 65.5836 102.414 62.6215 107.679 61.4142C112.419 60.3272 117.154 60.8243 121.326 62.5571C112.392 51.7408 96.3748 56.6251 75.4074 63.4788C51.4682 71.304 41.8584 44.1572 41.8584 44.1572C46.51 79.1018 75.0974 89.1996 92.2548 72.5481Z" fill="#002BB7"/>
<path d="M91.9926 77.9942C92.6539 76.8254 93.2353 75.6009 93.7253 74.3513C95.5516 69.6942 98.9415 65.6146 103.653 62.9771C107.895 60.6021 112.578 59.749 117.071 60.2394C105.448 52.3708 91.4553 61.5575 73.2687 74.0252C52.5043 88.2598 35.627 64.9106 35.627 64.9106C49.9457 97.1349 80.2251 98.793 91.9926 77.9942Z" fill="#002BB7"/>
<path d="M93.2767 83.2946C93.5816 81.9874 93.7942 80.6492 93.9119 79.3124C94.351 74.3303 96.4531 69.4631 100.23 65.6085C103.631 62.1377 107.884 60.0033 112.333 59.2117C98.961 54.9269 88.1253 67.6734 74.1903 84.7464C58.2803 104.239 35.5 86.5761 35.5 86.5761C58.3285 113.475 87.8511 106.558 93.2767 83.2946Z" fill="#002BB7"/>
<path d="M96.0041 88.0189C95.9279 86.679 95.7544 85.3353 95.4904 84.0192C94.5066 79.1153 95.1509 73.8543 97.6881 69.0944C99.9724 64.8086 103.452 61.5654 107.498 59.5559C93.4578 59.2012 86.6552 74.4767 78.0989 94.7744C68.3299 117.949 41.4893 107.4 41.4893 107.4C70.9808 126.797 97.3589 111.866 96.0041 88.0189Z" fill="#002BB7"/>
<path d="M99.9525 91.7854C99.5016 90.5209 98.956 89.2803 98.3317 88.0918C96.0045 83.6624 95.1393 78.4333 96.2314 73.1531C97.2148 68.3988 99.6387 64.3094 102.954 61.2441C89.3819 64.8484 87.1628 81.4175 84.677 103.298C81.8388 128.281 53.1084 125.699 53.1084 125.699C86.878 136.026 107.979 114.288 99.9525 91.7854Z" fill="#002BB7"/>
<path d="M104.805 94.292C104.016 93.2053 103.142 92.1681 102.208 91.2031C98.7256 87.6068 96.4205 82.8322 95.9792 77.4588C95.5818 72.6205 96.7544 68.0153 99.0716 64.1426C87.0644 71.4145 89.6081 87.9369 93.394 109.631C97.7166 134.401 69.4199 139.996 69.4199 139.996C104.737 140.418 118.853 113.63 104.805 94.292Z" fill="#002BB7"/>
<path d="M154.62 110H146.412L132.684 89.216V110H124.476V76.304H132.684L146.412 97.184V76.304H154.62V110ZM164.698 80.432C163.258 80.432 162.074 80.016 161.146 79.184C160.25 78.32 159.802 77.264 159.802 76.016C159.802 74.736 160.25 73.68 161.146 72.848C162.074 71.984 163.258 71.552 164.698 71.552C166.106 71.552 167.258 71.984 168.154 72.848C169.082 73.68 169.546 74.736 169.546 76.016C169.546 77.264 169.082 78.32 168.154 79.184C167.258 80.016 166.106 80.432 164.698 80.432ZM168.778 83.216V110H160.57V83.216H168.778ZM190.566 110L185.43 102.56L181.11 110H172.23L181.062 96.32L171.99 83.216H181.206L186.342 90.608L190.662 83.216H199.542L190.566 96.704L199.782 110H190.566ZM207.073 80.432C205.633 80.432 204.449 80.016 203.521 79.184C202.625 78.32 202.177 77.264 202.177 76.016C202.177 74.736 202.625 73.68 203.521 72.848C204.449 71.984 205.633 71.552 207.073 71.552C208.481 71.552 209.633 71.984 210.529 72.848C211.457 73.68 211.921 74.736 211.921 76.016C211.921 77.264 211.457 78.32 210.529 79.184C209.633 80.016 208.481 80.432 207.073 80.432ZM211.153 83.216V110H202.945V83.216H211.153ZM242.349 96.176C242.349 96.944 242.301 97.744 242.205 98.576H223.629C223.757 100.24 224.285 101.52 225.213 102.416C226.173 103.28 227.341 103.712 228.717 103.712C230.765 103.712 232.189 102.848 232.989 101.12H241.725C241.277 102.88 240.461 104.464 239.277 105.872C238.125 107.28 236.669 108.384 234.909 109.184C233.149 109.984 231.181 110.384 229.005 110.384C226.381 110.384 224.045 109.824 221.997 108.704C219.949 107.584 218.349 105.984 217.197 103.904C216.045 101.824 215.469 99.392 215.469 96.608C215.469 93.824 216.029 91.392 217.149 89.312C218.301 87.232 219.901 85.632 221.949 84.512C223.997 83.392 226.349 82.832 229.005 82.832C231.597 82.832 233.901 83.376 235.917 84.464C237.933 85.552 239.501 87.104 240.621 89.12C241.773 91.136 242.349 93.488 242.349 96.176ZM233.949 94.016C233.949 92.608 233.469 91.488 232.509 90.656C231.549 89.824 230.349 89.408 228.909 89.408C227.533 89.408 226.365 89.808 225.405 90.608C224.477 91.408 223.901 92.544 223.677 94.016H233.949Z" fill="white"/>
</svg>
