<svg width="209" height="140" viewBox="0 0 209 140" fill="none" xmlns="http://www.w3.org/2000/svg">
<path d="M71.0756 57.5532C72.3295 58.0385 73.6269 58.4371 74.9365 58.7418C79.8166 59.8773 84.3482 62.6399 87.6396 66.915C90.6034 70.7643 92.1214 75.2676 92.2802 79.7756C98.4139 67.1653 87.2961 54.6631 72.3234 38.4889C55.2286 20.0224 75.9574 0 75.9574 0C46.0608 18.7692 48.7635 48.9155 71.0756 57.5532Z" fill="#002BB7"/>
<path d="M66.005 59.582C67.3446 59.6954 68.7023 59.7133 70.0444 59.6377C75.0475 59.3561 80.1752 60.7338 84.5393 63.9112C88.4688 66.7721 91.1958 70.6668 92.6194 74.9479C94.9487 61.1241 80.7543 52.2512 61.8254 40.9378C40.2136 28.0208 54.4573 2.98438 54.4573 2.98438C31.0633 29.3942 42.1589 57.5621 66.005 59.582Z" fill="#002BB7"/>
<path d="M61.7114 62.9543C63.0291 62.6868 64.3364 62.3223 65.6034 61.8727C70.3246 60.197 75.6333 60.0784 80.717 61.9012C85.2946 63.5425 89.0095 66.5135 91.583 70.2215C89.9194 56.3025 73.7965 51.776 52.4422 46.2383C28.0613 39.9156 34.668 11.8896 34.668 11.8896C19.6683 43.8043 38.2595 67.7159 61.711 62.9543H61.7114Z" fill="#002BB7"/>
<path d="M58.5426 67.3961C59.7317 66.769 60.8835 66.0524 61.9723 65.2648C66.03 62.3304 71.0907 60.7249 76.4831 61.0457C81.3383 61.3344 85.7413 63.1418 89.2565 65.9768C83.7343 53.0879 66.9868 53.2744 44.9344 53.9601C19.756 54.743 18.1913 25.9941 18.1913 25.9941C12.7991 60.8324 37.3827 78.5539 58.5426 67.3961Z" fill="#002BB7"/>
<path d="M56.7558 72.5481C57.7195 71.6127 58.6234 70.6005 59.4457 69.5394C62.5117 65.5836 66.915 62.6215 72.1798 61.4142C76.9203 60.3272 81.6547 60.8243 85.8274 62.5571C76.8935 51.7408 60.8758 56.6251 39.9084 63.4788C15.9691 71.304 6.35938 44.1572 6.35938 44.1572C11.0109 79.1018 39.5984 89.1996 56.7558 72.5481Z" fill="#002BB7"/>
<path d="M56.4926 77.9942C57.1539 76.8254 57.7353 75.6009 58.2253 74.3513C60.0516 69.6942 63.4415 65.6146 68.1529 62.9771C72.3951 60.6021 77.0783 59.749 81.5709 60.2394C69.9477 52.3708 55.9553 61.5575 37.7687 74.0252C17.0043 88.2598 0.126953 64.9106 0.126953 64.9106C14.4457 97.1349 44.7251 98.793 56.4926 77.9942Z" fill="#002BB7"/>
<path d="M57.7767 83.2946C58.0816 81.9874 58.2942 80.6492 58.4119 79.3124C58.851 74.3303 60.9531 69.4631 64.7301 65.6085C68.1309 62.1377 72.3842 60.0033 76.8335 59.2117C63.461 54.9269 52.6253 67.6734 38.6903 84.7464C22.7803 104.239 0 86.5761 0 86.5761C22.8285 113.475 52.3511 106.558 57.7767 83.2946Z" fill="#002BB7"/>
<path d="M60.5031 88.0189C60.4269 86.679 60.2534 85.3353 59.9894 84.0192C59.0056 79.1153 59.6499 73.8543 62.1871 69.0944C64.4715 64.8086 67.9509 61.5654 71.997 59.5559C57.9568 59.2012 51.1542 74.4767 42.5979 94.7744C32.8289 117.949 5.98828 107.4 5.98828 107.4C35.4798 126.797 61.8579 111.866 60.5031 88.0189Z" fill="#002BB7"/>
<path d="M64.4535 91.7854C64.0026 90.5209 63.4569 89.2803 62.8327 88.0918C60.5055 83.6624 59.6402 78.4333 60.7324 73.1531C61.7158 68.3988 64.1397 64.3094 67.4554 61.2441C53.8829 64.8484 51.6638 81.4175 49.178 103.298C46.3397 128.281 17.6094 125.699 17.6094 125.699C51.379 136.026 72.4795 114.288 64.4535 91.7854Z" fill="#002BB7"/>
<path d="M69.305 94.292C68.5157 93.2053 67.6422 92.1681 66.7078 91.2031C63.2256 87.6068 60.9205 82.8322 60.4792 77.4588C60.0818 72.6205 61.2544 68.0153 63.5716 64.1426C51.5644 71.4145 54.1081 87.9369 57.894 109.631C62.2166 134.401 33.9199 139.996 33.9199 139.996C69.2367 140.418 83.3528 113.63 69.305 94.292Z" fill="#002BB7"/>
<path d="M119.12 110H110.912L97.184 89.216V110H88.976V76.304H97.184L110.912 97.184V76.304H119.12V110ZM129.198 80.432C127.758 80.432 126.574 80.016 125.646 79.184C124.75 78.32 124.302 77.264 124.302 76.016C124.302 74.736 124.75 73.68 125.646 72.848C126.574 71.984 127.758 71.552 129.198 71.552C130.606 71.552 131.758 71.984 132.654 72.848C133.582 73.68 134.046 74.736 134.046 76.016C134.046 77.264 133.582 78.32 132.654 79.184C131.758 80.016 130.606 80.432 129.198 80.432ZM133.278 83.216V110H125.07V83.216H133.278ZM155.066 110L149.93 102.56L145.61 110H136.73L145.562 96.32L136.49 83.216H145.706L150.842 90.608L155.162 83.216H164.042L155.066 96.704L164.282 110H155.066ZM171.573 80.432C170.133 80.432 168.949 80.016 168.021 79.184C167.125 78.32 166.677 77.264 166.677 76.016C166.677 74.736 167.125 73.68 168.021 72.848C168.949 71.984 170.133 71.552 171.573 71.552C172.981 71.552 174.133 71.984 175.029 72.848C175.957 73.68 176.421 74.736 176.421 76.016C176.421 77.264 175.957 78.32 175.029 79.184C174.133 80.016 172.981 80.432 171.573 80.432ZM175.653 83.216V110H167.445V83.216H175.653ZM206.849 96.176C206.849 96.944 206.801 97.744 206.705 98.576H188.129C188.257 100.24 188.785 101.52 189.713 102.416C190.673 103.28 191.841 103.712 193.217 103.712C195.265 103.712 196.689 102.848 197.489 101.12H206.225C205.777 102.88 204.961 104.464 203.777 105.872C202.625 107.28 201.169 108.384 199.409 109.184C197.649 109.984 195.681 110.384 193.505 110.384C190.881 110.384 188.545 109.824 186.497 108.704C184.449 107.584 182.849 105.984 181.697 103.904C180.545 101.824 179.969 99.392 179.969 96.608C179.969 93.824 180.529 91.392 181.649 89.312C182.801 87.232 184.401 85.632 186.449 84.512C188.497 83.392 190.849 82.832 193.505 82.832C196.097 82.832 198.401 83.376 200.417 84.464C202.433 85.552 204.001 87.104 205.121 89.12C206.273 91.136 206.849 93.488 206.849 96.176ZM198.449 94.016C198.449 92.608 197.969 91.488 197.009 90.656C196.049 89.824 194.849 89.408 193.409 89.408C192.033 89.408 190.865 89.808 189.905 90.608C188.977 91.408 188.401 92.544 188.177 94.016H198.449Z" fill="black"/>
</svg>
