<svg width="157" height="199" viewBox="0 0 157 199" fill="none" xmlns="http://www.w3.org/2000/svg">
<path d="M116.462 90.5266C117.016 87.8181 117.294 85.0606 117.293 82.2961C117.293 66.03 107.958 54.1636 94.1731 47.6251C95.3545 45.4333 95.9386 42.9694 95.8666 40.4806C95.8666 29.8006 86.4856 21.3451 75.8071 21.3451C73.3011 21.3302 70.8174 21.8168 68.5022 22.7762C66.187 23.7355 64.0871 25.1483 62.326 26.9313C60.5649 28.7143 59.1783 30.8316 58.2477 33.1585C57.3171 35.4854 56.8613 37.9749 56.9071 40.4806C56.9071 43.4806 57.1576 42.2566 58.0006 47.9071C44.2156 54.4426 35.7646 66.0226 35.7646 82.2946C35.7646 82.8496 35.7797 83.4 35.7992 83.9445C35.7142 84.2372 35.73 84.55 35.8442 84.8325C35.9603 86.7438 36.2109 88.6445 36.5942 90.5206C25.1515 103.043 18.8784 119.436 19.0381 136.398C19.0381 171.612 44.7752 198.906 76.5257 198.906C108.276 198.906 134.016 171.606 134.016 136.398C134.174 119.438 127.902 103.048 116.462 90.5266Z" fill="url(#paint0_linear_46_7105)"/>
<path d="M114.356 91.4983C116.093 83.024 114.939 74.212 111.077 66.4711C107.216 58.7302 100.871 52.5075 93.0561 48.7978C94.3943 46.0059 95.0029 42.9203 94.8251 39.8294C94.6473 36.7385 93.6888 33.7431 92.0392 31.1231C90.3896 28.5031 88.1027 26.344 85.3923 24.8476C82.6819 23.3513 79.6364 22.5664 76.5403 22.5664C73.4443 22.5664 70.3988 23.3513 67.6883 24.8476C64.9779 26.344 62.6911 28.5031 61.0415 31.1231C59.3919 33.7431 58.4334 36.7385 58.2556 39.8294C58.0777 42.9203 58.6864 46.0059 60.0246 48.7978C53.4152 51.9274 47.8304 56.8695 43.92 63.049C40.0096 69.2285 37.9343 76.3914 37.9356 83.7043C37.9356 84.2293 37.9476 84.7543 37.9701 85.2703C37.8893 85.5476 37.904 85.8439 38.0121 86.1118C38.1223 87.9223 38.3599 89.7227 38.7231 91.4998C27.8855 103.355 21.9431 118.877 22.0926 134.938C22.0926 168.292 46.4706 195.331 76.5426 195.331C106.615 195.331 130.993 168.292 130.993 134.938C131.13 118.877 125.186 103.359 114.356 91.4983Z" fill="white"/>
<path d="M68.4225 36.8275C69.3819 36.8275 70.1595 36.0498 70.1595 35.0905C70.1595 34.1312 69.3819 33.3535 68.4225 33.3535C67.4632 33.3535 66.6855 34.1312 66.6855 35.0905C66.6855 36.0498 67.4632 36.8275 68.4225 36.8275Z" fill="#263238"/>
<path d="M82.3249 36.8275C83.2842 36.8275 84.0619 36.0498 84.0619 35.0905C84.0619 34.1312 83.2842 33.3535 82.3249 33.3535C81.3656 33.3535 80.5879 34.1312 80.5879 35.0905C80.5879 36.0498 81.3656 36.8275 82.3249 36.8275Z" fill="#263238"/>
<path d="M60.0215 48.7031C60.0215 48.7031 72.7715 63.1841 74.5025 72.7436L80.5984 70.1366L71.9165 54.4961C71.9165 54.4961 86.1079 55.3646 93.0664 48.7031H60.0215Z" fill="#6C63FF"/>
<path d="M73.9258 40.6411V56.4781C73.9258 56.6357 73.9568 56.7917 74.0171 56.9373C74.0774 57.0829 74.1658 57.2152 74.2773 57.3266C74.3887 57.4381 74.521 57.5265 74.6666 57.5868C74.8121 57.6471 74.9682 57.6781 75.1258 57.6781C75.4288 57.679 75.7209 57.5652 75.9435 57.3596C76.1661 57.154 76.3027 56.8718 76.3258 56.5696L77.5767 40.7326C77.5905 40.5669 77.5696 40.4001 77.5155 40.2429C77.4614 40.0857 77.3752 39.9415 77.2624 39.8193C77.1495 39.6972 77.0125 39.5998 76.8601 39.5334C76.7076 39.467 76.543 39.433 76.3768 39.4336H75.1258C74.9676 39.4336 74.8109 39.4649 74.6648 39.5257C74.5187 39.5864 74.3861 39.6755 74.2746 39.7877C74.1631 39.9 74.0748 40.0331 74.015 40.1796C73.9551 40.3261 73.9248 40.4829 73.9258 40.6411Z" fill="#FF6E40"/>
<path d="M88.6043 23.0786V13.4141C88.6041 12.6958 88.4255 11.9888 88.0844 11.3567C87.7432 10.7246 87.2503 10.1872 86.6499 9.79283C86.0495 9.39849 85.3606 9.15957 84.645 9.09756C83.9294 9.03554 83.2096 9.15237 82.5504 9.43755C80.9086 10.169 79.1267 10.5323 77.3297 10.502C75.5326 10.4716 73.764 10.0484 72.1479 9.26204C71.5183 8.95959 70.8252 8.81317 70.1271 8.83517C69.429 8.85716 68.7465 9.04692 68.1372 9.38841C67.528 9.72989 67.0099 10.2131 66.6268 10.797C66.2437 11.381 66.0068 12.0487 65.9363 12.7436L64.8279 23.0815H61.1543V30.2515H92.1848V23.0786H88.6043Z" fill="url(#paint1_linear_46_7105)"/>
<path d="M91.5933 23.7939H61.7598V29.2974H91.5933V23.7939Z" fill="#6C63FF"/>
<path d="M72.5345 10.1741C74.0067 10.892 75.6183 11.2784 77.2559 11.3061C78.8935 11.3338 80.5173 11.0022 82.013 10.3346C82.6132 10.0774 83.2678 9.97306 83.9183 10.0309C84.5687 10.0887 85.1947 10.307 85.7402 10.666C86.2856 11.0251 86.7334 11.5138 87.0437 12.0884C87.354 12.663 87.5169 13.3056 87.5179 13.9586V24.3761H65.8145L66.8825 13.3481C66.9467 12.7151 67.1624 12.1069 67.5113 11.5749C67.8602 11.0428 68.3321 10.6026 68.8871 10.2915C69.442 9.9803 70.0637 9.80732 70.6996 9.78715C71.3355 9.76698 71.9669 9.90021 72.5405 10.1756L72.5345 10.1741Z" fill="#6C63FF"/>
<path d="M75.6632 84.0384C76.7824 84.0384 77.6897 83.1311 77.6897 82.0119C77.6897 80.8926 76.7824 79.9854 75.6632 79.9854C74.544 79.9854 73.6367 80.8926 73.6367 82.0119C73.6367 83.1311 74.544 84.0384 75.6632 84.0384Z" fill="#263238"/>
<path d="M75.6632 90.7005C76.7824 90.7005 77.6897 89.7932 77.6897 88.674C77.6897 87.5548 76.7824 86.6475 75.6632 86.6475C74.544 86.6475 73.6367 87.5548 73.6367 88.674C73.6367 89.7932 74.544 90.7005 75.6632 90.7005Z" fill="#263238"/>
<path d="M75.6632 97.3616C76.7824 97.3616 77.6897 96.4543 77.6897 95.3351C77.6897 94.2159 76.7824 93.3086 75.6632 93.3086C74.544 93.3086 73.6367 94.2159 73.6367 95.3351C73.6367 96.4543 74.544 97.3616 75.6632 97.3616Z" fill="#263238"/>
<path d="M75.6632 104.024C76.7824 104.024 77.6897 103.116 77.6897 101.997C77.6897 100.878 76.7824 99.9707 75.6632 99.9707C74.544 99.9707 73.6367 100.878 73.6367 101.997C73.6367 103.116 74.544 104.024 75.6632 104.024Z" fill="#263238"/>
<path d="M43.7818 64.5461C38.4273 62.7456 33.4908 59.8839 29.2674 56.1322C25.044 52.3804 21.6204 47.8156 19.2013 42.7106C25.0693 42.4601 29.5783 37.9811 31.8463 32.7791C34.8043 25.9646 35.6698 18.0356 37.1863 10.8161C37.5868 8.90657 34.6559 8.09057 34.2554 10.0076C32.9609 16.1816 32.0053 22.5551 30.1558 28.5911C28.5058 33.9716 24.7933 39.7721 18.4948 39.6911C18.3034 39.6883 18.1131 39.7214 17.9338 39.7886C15.3329 33.114 14.4559 25.8916 15.3839 18.7886C15.6344 16.8521 12.5938 16.8761 12.3433 18.7886C11.7278 23.5161 11.8767 28.3118 12.7844 32.9921C10.3898 32.7564 7.98652 33.346 5.97284 34.6631C4.33934 35.7296 5.86485 38.3621 7.50735 37.2881C8.37569 36.6968 9.35734 36.2923 10.3902 36.1002C11.423 35.9081 12.4845 35.9326 13.5074 36.1721C15.4664 43.4104 19.1798 50.0541 24.3189 55.515C29.458 60.9759 35.8642 65.0855 42.9703 67.4801C44.8363 68.1026 45.6268 65.1641 43.7818 64.5461Z" fill="url(#paint2_linear_46_7105)"/>
<path d="M43.7501 63.1857C37.6688 61.1409 32.0622 57.8908 27.2656 53.6297C22.469 49.3687 18.5808 44.1842 15.8336 38.3862C22.4951 38.0862 27.6206 33.0132 30.1946 27.1062C33.5666 19.3677 34.5446 10.3752 36.2606 2.1597C36.7106 -0.00780433 33.3866 -0.936304 32.9306 1.2432C31.4621 8.2527 30.3686 15.4932 28.2806 22.3467C26.4131 28.4577 22.1906 35.0442 15.0371 34.9332C14.819 34.93 14.6023 34.9677 14.3981 35.0442C11.4444 27.4637 10.4488 19.2612 11.5031 11.1942C11.8031 8.9952 8.33508 9.0207 8.05308 11.1942C7.34476 16.5695 7.5068 22.0239 8.53305 27.3477C5.8123 27.0803 3.08189 27.7508 0.794554 29.2482C-1.06095 30.4482 0.67157 33.4482 2.53607 32.2302C3.52339 31.5574 4.63988 31.0972 5.81457 30.879C6.98927 30.6608 8.1965 30.6893 9.35959 30.9627C11.5867 39.1837 15.8066 46.7287 21.6456 52.9296C27.4847 59.1305 34.7626 63.7959 42.8351 66.5127C44.9501 67.2252 45.8501 63.8772 43.7501 63.1857Z" fill="#795548"/>
<path d="M146.216 34.443C144.203 33.1252 141.8 32.5346 139.405 32.769C140.312 28.0846 140.46 23.2848 139.843 18.5535C139.592 16.6395 136.543 16.614 136.802 18.5535C138.095 28.2946 135.97 38.1825 130.789 46.5326C125.609 54.8827 117.694 61.1784 108.392 64.347C106.546 64.965 107.342 67.9035 109.201 67.2795C116.31 64.8829 122.718 60.7703 127.859 55.306C132.999 49.8416 136.713 43.1941 138.671 35.952C139.694 35.7126 140.756 35.6883 141.788 35.8804C142.821 36.0725 143.803 36.4769 144.671 37.068C146.326 38.142 147.853 35.5095 146.216 34.443Z" fill="url(#paint3_linear_46_7105)"/>
<path d="M155.961 25.3661C153.436 23.7124 150.422 22.9715 147.418 23.2661C148.553 17.3987 148.737 11.3869 147.963 5.46109C147.648 3.06109 143.835 3.03259 144.151 5.46109C145.775 17.6679 143.113 30.0598 136.62 40.5233C130.127 50.9867 120.206 58.8737 108.547 62.8391C106.231 63.6131 107.224 67.2956 109.56 66.5141C118.469 63.5124 126.502 58.3602 132.945 51.5136C139.388 44.667 144.044 36.3374 146.5 27.2621C147.784 26.9602 149.117 26.9287 150.414 27.1696C151.711 27.4106 152.943 27.9187 154.033 28.6616C156.1 30.0011 158.013 26.7026 155.961 25.3661Z" fill="#795548"/>
<defs>
<linearGradient id="paint0_linear_46_7105" x1="76.5271" y1="198.906" x2="76.5271" y2="21.3447" gradientUnits="userSpaceOnUse">
<stop stop-color="#808080" stop-opacity="0.251"/>
<stop offset="0.54" stop-color="#808080" stop-opacity="0.122"/>
<stop offset="1" stop-color="#808080" stop-opacity="0.102"/>
</linearGradient>
<linearGradient id="paint1_linear_46_7105" x1="76.6696" y1="30.2515" x2="76.6696" y2="8.83301" gradientUnits="userSpaceOnUse">
<stop stop-color="#808080" stop-opacity="0.251"/>
<stop offset="0.54" stop-color="#808080" stop-opacity="0.122"/>
<stop offset="1" stop-color="#808080" stop-opacity="0.102"/>
</linearGradient>
<linearGradient id="paint2_linear_46_7105" x1="25.0521" y1="67.5661" x2="25.0521" y2="8.91406" gradientUnits="userSpaceOnUse">
<stop stop-color="#808080" stop-opacity="0.251"/>
<stop offset="0.54" stop-color="#808080" stop-opacity="0.122"/>
<stop offset="1" stop-color="#808080" stop-opacity="0.102"/>
</linearGradient>
<linearGradient id="paint3_linear_46_7105" x1="127.13" y1="67.3659" x2="127.13" y2="17.1084" gradientUnits="userSpaceOnUse">
<stop stop-color="#808080" stop-opacity="0.251"/>
<stop offset="0.54" stop-color="#808080" stop-opacity="0.122"/>
<stop offset="1" stop-color="#808080" stop-opacity="0.102"/>
</linearGradient>
</defs>
</svg>
