<svg width="140" height="134" viewBox="0 0 140 134" fill="none" xmlns="http://www.w3.org/2000/svg">
<path d="M54.5659 133.311H46.8678L46.7793 90.6074H54.5643L54.5659 133.311Z" fill="#3F3D56"/>
<path d="M23.8476 76.6665L29.2477 74.6895L31.9312 73.7085C32.7981 73.3596 33.6822 73.0552 34.5801 72.7965C35.3659 72.5716 36.2003 72.582 36.9801 72.8265C37.675 73.0836 38.3112 73.478 38.8506 73.986C39.4019 74.4933 39.9148 75.0408 40.3851 75.624C40.9701 76.326 41.5446 77.0355 42.1236 77.7435C44.5096 80.6625 46.8806 83.5935 49.2366 86.5365C51.5926 89.4795 53.9322 92.436 56.2552 95.406C58.5842 98.382 60.8976 101.371 63.1956 104.372L64.0386 105.475C64.1886 105.678 64.5441 105.475 64.3866 105.271C62.0726 102.24 59.7421 99.222 57.3951 96.216C55.0481 93.21 52.6796 90.21 50.2896 87.216C47.9046 84.228 45.5046 81.253 43.0896 78.291C42.4896 77.553 41.8866 76.816 41.2806 76.08C40.7706 75.459 40.2667 74.8305 39.7087 74.253C39.2326 73.6796 38.6481 73.2058 37.9887 72.8586C37.3292 72.5114 36.6078 72.2976 35.8656 72.2295C34.967 72.261 34.0816 72.4556 33.2526 72.804C32.3526 73.131 31.4526 73.464 30.5526 73.794L25.1107 75.7845L23.7501 76.2825C23.5086 76.371 23.6137 76.7595 23.8567 76.671L23.8476 76.6665Z" fill="#E6E7E8"/>
<path d="M38.6496 76.6871C38.1763 75.9898 37.5168 75.4395 36.7461 75.0986L35.9961 75.1286C41.6561 85.1239 49.2995 93.8567 58.4571 100.791L38.6496 76.6871Z" fill="#E6E7E8"/>
<path d="M63.3455 70.4774C65.1611 71.6159 67.2548 72.2333 69.3976 72.2622C71.5405 72.291 73.6499 71.7301 75.4955 70.6409L75.9335 68.5409C76.1574 68.7493 76.4232 68.9076 76.7131 69.0053C77.003 69.103 77.3104 69.1378 77.6148 69.1075C77.9192 69.0771 78.2137 68.9822 78.4786 68.8292C78.7434 68.6761 78.9727 68.4684 79.151 68.2199C75.6632 60.7818 70.5439 54.2253 64.1735 49.0379C65.1125 49.5854 66.2124 49.7896 67.2853 49.6156C68.3582 49.4416 69.3373 48.9001 70.0551 48.0839C72.1352 47.3804 74.1049 46.385 75.905 45.1274C69.7265 35.2004 57.9456 27.3149 55.1451 15.9629C46.7211 25.0094 45.7745 28.1954 37.3505 37.2434C37.3505 37.2434 29.3735 44.4434 27.6515 48.3104C28.0745 48.7604 31.862 49.8209 32.0015 50.6954C33.4507 50.8019 34.9058 50.595 36.2678 50.0887C37.6298 49.5824 38.8668 48.7886 39.8945 47.7614C34.4795 53.5169 28.9731 59.4059 25.6566 66.5774C25.2814 67.1904 25.1623 67.9264 25.3251 68.6264C25.4344 68.8843 25.6365 69.0918 25.8915 69.2079C26.1464 69.324 26.4357 69.3402 26.702 69.2534C26.1506 69.785 25.708 70.4188 25.3986 71.1194C26.3607 71.7338 27.5019 72.0058 28.6377 71.8914C29.7735 71.7771 30.8376 71.2832 31.658 70.4894L30.272 73.0784C31.8452 73.6518 33.516 73.9097 35.1889 73.8374C36.8619 73.7651 38.5041 73.3639 40.022 72.6569C36.3635 74.9519 27.215 82.9094 25.2215 86.7419C24.3215 88.4774 33.5885 90.5699 35.6735 90.4919C37.7538 90.2629 39.7665 89.6165 41.591 88.5914C41.4992 89.4503 41.6636 90.3172 42.0635 91.0829C43.0949 91.3331 44.1658 91.3746 45.2134 91.2052C46.261 91.0357 47.2642 90.6585 48.164 90.0959C48.0515 92.4179 52.0535 93.3374 52.964 91.1984C52.622 92.4554 54.2855 93.2339 55.568 93.4619C59.228 94.1114 63.6456 94.5119 66.0276 91.6529C67.4559 92.977 69.3339 93.7091 71.2816 93.7011C73.2293 93.693 75.1012 92.9453 76.5185 91.6094C76.4682 91.7504 76.448 91.9003 76.4591 92.0496C76.4702 92.1988 76.5124 92.3441 76.583 92.4761C76.6537 92.608 76.7512 92.7237 76.8692 92.8158C76.9873 92.9078 77.1233 92.9741 77.2685 93.0104C78.005 93.0571 78.7304 92.8119 79.2875 92.3279C82.0385 90.4889 77.141 87.3014 79.8876 85.4624C71.8415 80.0129 71.4215 75.9194 63.3455 70.4774Z" fill="#3F3D56"/>
<path d="M41.0003 39.8053C41.6175 39.8053 42.1178 39.305 42.1178 38.6878C42.1178 38.0706 41.6175 37.5703 41.0003 37.5703C40.3831 37.5703 39.8828 38.0706 39.8828 38.6878C39.8828 39.305 40.3831 39.8053 41.0003 39.8053Z" fill="#E6E7E8"/>
<path d="M46.8245 66.8659C47.4417 66.8659 47.942 66.3655 47.942 65.7484C47.942 65.1312 47.4417 64.6309 46.8245 64.6309C46.2074 64.6309 45.707 65.1312 45.707 65.7484C45.707 66.3655 46.2074 66.8659 46.8245 66.8659Z" fill="white"/>
<path d="M52.2542 46.5153C52.8714 46.5153 53.3717 46.015 53.3717 45.3978C53.3717 44.7806 52.8714 44.2803 52.2542 44.2803C51.637 44.2803 51.1367 44.7806 51.1367 45.3978C51.1367 46.015 51.637 46.5153 52.2542 46.5153Z" fill="#E6E7E8"/>
<path d="M32.055 65.7467C32.6722 65.7467 33.1725 65.2464 33.1725 64.6292C33.1725 64.012 32.6722 63.5117 32.055 63.5117C31.4378 63.5117 30.9375 64.012 30.9375 64.6292C30.9375 65.2464 31.4378 65.7467 32.055 65.7467Z" fill="white"/>
<path d="M21.9904 40.3321C21.9904 40.6287 21.8726 40.9131 21.6629 41.1229C21.4532 41.3326 21.1687 41.4504 20.8721 41.4504C20.5756 41.4504 20.2911 41.3326 20.0814 41.1229C19.8717 40.9131 19.7539 40.6287 19.7539 40.3321C19.7539 39.7141 34.2004 12.2236 34.8184 12.2236C35.4364 12.2236 21.9904 39.7141 21.9904 40.3321Z" fill="#E6E7E8"/>
<path d="M52.2542 80.1627C52.8714 80.1627 53.3717 79.6624 53.3717 79.0452C53.3717 78.4281 52.8714 77.9277 52.2542 77.9277C51.637 77.9277 51.1367 78.4281 51.1367 79.0452C51.1367 79.6624 51.637 80.1627 52.2542 80.1627Z" fill="#E6E7E8"/>
<path d="M79.0627 95.9779C80.8156 95.9779 82.2367 94.5568 82.2367 92.8039C82.2367 91.0509 80.8156 89.6299 79.0627 89.6299C77.3097 89.6299 75.8887 91.0509 75.8887 92.8039C75.8887 94.5568 77.3097 95.9779 79.0627 95.9779Z" fill="#6C63FF"/>
<path d="M24.5334 91.9037C26.2863 91.9037 27.7074 90.4826 27.7074 88.7297C27.7074 86.9767 26.2863 85.5557 24.5334 85.5557C22.7804 85.5557 21.3594 86.9767 21.3594 88.7297C21.3594 90.4826 22.7804 91.9037 24.5334 91.9037Z" fill="#FF6584"/>
<path d="M22.6623 71.1585C24.4152 71.1585 25.8363 69.7375 25.8363 67.9845C25.8363 66.2316 24.4152 64.8105 22.6623 64.8105C20.9093 64.8105 19.4883 66.2316 19.4883 67.9845C19.4883 69.7375 20.9093 71.1585 22.6623 71.1585Z" fill="#6C63FF"/>
<path d="M79.0627 70.0414C80.8156 70.0414 82.2367 68.6203 82.2367 66.8674C82.2367 65.1144 80.8156 63.6934 79.0627 63.6934C77.3097 63.6934 75.8887 65.1144 75.8887 66.8674C75.8887 68.6203 77.3097 70.0414 79.0627 70.0414Z" fill="#6C63FF"/>
<path d="M75.9142 48.3041C77.6672 48.3041 79.0882 46.883 79.0882 45.1301C79.0882 43.3771 77.6672 41.9561 75.9142 41.9561C74.1613 41.9561 72.7402 43.3771 72.7402 45.1301C72.7402 46.883 74.1613 48.3041 75.9142 48.3041Z" fill="#FF6584"/>
<path d="M52.68 26.8346C53.2972 26.8346 53.7975 26.3343 53.7975 25.7171C53.7975 25.0999 53.2972 24.5996 52.68 24.5996C52.0628 24.5996 51.5625 25.0999 51.5625 25.7171C51.5625 26.3343 52.0628 26.8346 52.68 26.8346Z" fill="white"/>
<path d="M44.0247 29.4046C46.052 31.1827 48.5171 32.3875 51.1656 32.8946C53.8141 33.4016 56.55 33.1926 59.0907 32.2891C60.526 31.7809 61.868 31.04 63.0627 30.0961L62.5962 29.7361C61.0612 32.9326 58.5441 35.5544 55.4127 37.2181C52.0909 38.9635 48.2661 39.5017 44.5917 38.7406C42.4633 38.3081 40.4414 37.4588 38.6427 36.2416C38.4417 36.1051 38.1072 36.3376 38.2062 36.5776C40.0392 41.0041 42.1287 45.4891 45.6327 48.8596C47.1092 50.4056 48.9126 51.602 50.9109 52.3614C52.9093 53.1208 55.0521 53.4239 57.1827 53.2486C59.4931 52.9946 61.6504 51.9688 63.3057 50.3371L62.8391 50.2771C63.352 51.4627 63.5938 52.7479 63.5471 54.0388C63.5004 55.3298 63.1663 56.5941 62.5692 57.7396C61.3226 60.2199 59.2105 62.1576 56.6321 63.1861C53.8799 64.2659 50.9149 64.6936 47.9697 64.4356C41.5628 63.9811 35.5028 61.3538 30.7917 56.9881C30.7394 56.9419 30.6727 56.9153 30.603 56.913C30.5333 56.9107 30.4649 56.9327 30.4097 56.9753C30.3545 57.018 30.3158 57.0785 30.3004 57.1465C30.285 57.2145 30.2937 57.2858 30.3252 57.3481C32.0877 60.9751 33.8547 64.6096 35.9622 68.0521C37.8925 71.3076 40.2499 74.2901 42.9717 76.9201C45.5311 79.386 48.5518 81.323 51.8607 82.6201C55.0117 83.8203 58.4203 84.1822 61.7531 83.6701C64.9807 83.2042 67.9895 81.7652 70.3781 79.5451C70.6781 79.2586 70.9587 78.9586 71.2287 78.6451L70.7217 78.4351C70.3809 81.2386 68.949 83.7948 66.7362 85.5496C64.2735 87.4705 61.3145 88.6501 58.2057 88.9501C55.0565 89.3198 51.8704 89.2309 48.7467 88.6861C45.713 88.184 42.7534 87.3072 39.9357 86.0761C36.7454 84.6831 33.77 82.8426 31.0992 80.6101C30.8082 80.3656 30.3851 80.7841 30.6791 81.0301C35.5998 85.1425 41.4913 87.9269 47.7926 89.1181C50.9771 89.742 54.2338 89.9132 57.4662 89.6266C60.7146 89.4178 63.8449 88.3289 66.5217 86.4766C67.8396 85.5477 68.9479 84.3526 69.7747 82.9684C70.6016 81.5842 71.1286 80.0418 71.3217 78.4411C71.3203 78.383 71.3021 78.3265 71.2692 78.2786C71.2364 78.2306 71.1903 78.1932 71.1366 78.171C71.0829 78.1487 71.0239 78.1426 70.9667 78.1532C70.9096 78.1639 70.8567 78.191 70.8147 78.2311C68.6756 80.6132 65.8294 82.2471 62.6937 82.8931C59.497 83.5828 56.1747 83.4152 53.0637 82.4071C49.7492 81.2949 46.7016 79.5072 44.1132 77.1571C41.3902 74.6869 39.0248 71.8491 37.0856 68.7256C35.0233 65.3854 33.1542 61.9298 31.4876 58.3756L30.8442 57.0526L30.3777 57.4126C35.0071 61.6966 40.9097 64.3503 47.1866 64.9696C52.9527 65.5246 59.6952 64.0801 62.7642 58.6621C63.5509 57.3686 64.016 55.9052 64.1204 54.3949C64.2248 52.8845 63.9655 51.371 63.3642 49.9816C63.3409 49.9428 63.3091 49.9099 63.2712 49.8851C63.2333 49.8604 63.1903 49.8445 63.1455 49.8388C63.1006 49.833 63.055 49.8375 63.0121 49.8518C62.9692 49.8661 62.93 49.89 62.8976 49.9216C61.435 51.2776 59.6232 52.1988 57.6657 52.5814C55.7082 52.9641 53.6828 52.793 51.8172 52.0876C47.7761 50.4646 44.4209 47.4936 42.3207 43.6786C40.9605 41.3551 39.781 38.9305 38.7926 36.4261L38.3562 36.7621C40.3721 38.1326 42.6605 39.0508 45.0645 39.4538C47.4686 39.8568 49.9314 39.735 52.284 39.0968C54.6366 38.4587 56.8233 37.3191 58.6942 35.7565C60.565 34.1938 62.0758 32.2449 63.1227 30.0436C63.1541 29.9813 63.1629 29.91 63.1475 29.842C63.1321 29.774 63.0934 29.7134 63.0382 29.6708C62.983 29.6282 62.9146 29.6062 62.8449 29.6085C62.7752 29.6108 62.7085 29.6374 62.6562 29.6836C60.5903 31.2277 58.151 32.195 55.5883 32.4862C53.0255 32.7775 50.4314 32.3823 48.0717 31.3411C46.7473 30.761 45.527 29.9674 44.4597 28.9921C44.1792 28.7341 43.7577 29.1526 44.0397 29.4121L44.0247 29.4046Z" fill="#6C63FF"/>
<path d="M1.7535 30.8644C2.72193 30.8644 3.507 30.0794 3.507 29.1109C3.507 28.1425 2.72193 27.3574 1.7535 27.3574C0.785069 27.3574 0 28.1425 0 29.1109C0 30.0794 0.785069 30.8644 1.7535 30.8644Z" fill="white"/>
<path d="M29.1109 39.5509C30.0794 39.5509 30.8644 38.7659 30.8644 37.7974C30.8644 36.829 30.0794 36.0439 29.1109 36.0439C28.1425 36.0439 27.3574 36.829 27.3574 37.7974C27.3574 38.7659 28.1425 39.5509 29.1109 39.5509Z" fill="white"/>
<path d="M105.923 3.507C106.892 3.507 107.677 2.72193 107.677 1.7535C107.677 0.785069 106.892 0 105.923 0C104.955 0 104.17 0.785069 104.17 1.7535C104.17 2.72193 104.955 3.507 105.923 3.507Z" fill="white"/>
<path d="M27.357 17.1857C28.3254 17.1857 29.1105 16.4006 29.1105 15.4322C29.1105 14.4638 28.3254 13.6787 27.357 13.6787C26.3886 13.6787 25.6035 14.4638 25.6035 15.4322C25.6035 16.4006 26.3886 17.1857 27.357 17.1857Z" fill="white"/>
<path d="M109.431 63.1496C110.4 63.1496 111.185 62.3645 111.185 61.3961C111.185 60.4276 110.4 59.6426 109.431 59.6426C108.463 59.6426 107.678 60.4276 107.678 61.3961C107.678 62.3645 108.463 63.1496 109.431 63.1496Z" fill="#E6E7E8"/>
<path d="M137.603 26.1164C138.572 26.1164 139.357 25.3313 139.357 24.3629C139.357 23.3944 138.572 22.6094 137.603 22.6094C136.635 22.6094 135.85 23.3944 135.85 24.3629C135.85 25.3313 136.635 26.1164 137.603 26.1164Z" fill="#E6E7E8"/>
<path d="M23.3355 73.7297C24.304 73.7297 25.089 72.9446 25.089 71.9762C25.089 71.0077 24.304 70.2227 23.3355 70.2227C22.3671 70.2227 21.582 71.0077 21.582 71.9762C21.582 72.9446 22.3671 73.7297 23.3355 73.7297Z" fill="white"/>
<path d="M11.9254 7.01384C12.8938 7.01384 13.6789 6.22877 13.6789 5.26034C13.6789 4.2919 12.8938 3.50684 11.9254 3.50684C10.9569 3.50684 10.1719 4.2919 10.1719 5.26034C10.1719 6.22877 10.9569 7.01384 11.9254 7.01384Z" fill="white"/>
<path d="M66.9801 17.1857C67.9485 17.1857 68.7336 16.4006 68.7336 15.4322C68.7336 14.4638 67.9485 13.6787 66.9801 13.6787C66.0116 13.6787 65.2266 14.4638 65.2266 15.4322C65.2266 16.4006 66.0116 17.1857 66.9801 17.1857Z" fill="white"/>
<path d="M61.7183 45.2297C62.6868 45.2297 63.4718 44.4446 63.4718 43.4762C63.4718 42.5077 62.6868 41.7227 61.7183 41.7227C60.7499 41.7227 59.9648 42.5077 59.9648 43.4762C59.9648 44.4446 60.7499 45.2297 61.7183 45.2297Z" fill="white"/>
<path d="M82.5758 79.6818C83.5442 79.6818 84.3293 78.8967 84.3293 77.9283C84.3293 76.9599 83.5442 76.1748 82.5758 76.1748C81.6073 76.1748 80.8223 76.9599 80.8223 77.9283C80.8223 78.8967 81.6073 79.6818 82.5758 79.6818Z" fill="white"/>
<path d="M109.431 98.9845C110.4 98.9845 111.185 98.1995 111.185 97.231C111.185 96.2626 110.4 95.4775 109.431 95.4775C108.463 95.4775 107.678 96.2626 107.678 97.231C107.678 98.1995 108.463 98.9845 109.431 98.9845Z" fill="white"/>
<path d="M66.7672 99.7121C67.7356 99.7121 68.5207 98.927 68.5207 97.9586C68.5207 96.9901 67.7356 96.2051 66.7672 96.2051C65.7987 96.2051 65.0137 96.9901 65.0137 97.9586C65.0137 98.927 65.7987 99.7121 66.7672 99.7121Z" fill="white"/>
<path d="M17.7847 114.858C18.7532 114.858 19.5382 114.073 19.5382 113.104C19.5382 112.136 18.7532 111.351 17.7847 111.351C16.8163 111.351 16.0312 112.136 16.0312 113.104C16.0312 114.073 16.8163 114.858 17.7847 114.858Z" fill="white"/>
<path d="M76.4586 30.8644C77.427 30.8644 78.2121 30.0794 78.2121 29.1109C78.2121 28.1425 77.427 27.3574 76.4586 27.3574C75.4901 27.3574 74.7051 28.1425 74.7051 29.1109C74.7051 30.0794 75.4901 30.8644 76.4586 30.8644Z" fill="white"/>
</svg>
