<svg width="48" height="48" viewBox="0 0 48 48" fill="none" xmlns="http://www.w3.org/2000/svg">
<path fill-rule="evenodd" clip-rule="evenodd" d="M37.3227 18.1526C37.3343 18.4524 37.3382 18.7521 37.3382 19.0519C37.3382 28.1414 30.9442 38.6347 19.2518 38.6347C15.6601 38.6347 12.3203 37.49 9.50635 35.5412C10.0038 35.5957 10.5089 35.6367 11.0218 35.6367C13.9999 35.6367 16.7427 34.5327 18.9184 32.6793C16.1368 32.6385 13.788 30.6352 12.9779 27.9097C13.3668 27.9915 13.7673 28.0325 14.1768 28.0325C14.7544 28.0325 15.3151 27.9508 15.8525 27.7873C12.9417 27.1605 10.7492 24.3805 10.7492 21.0418C10.7492 21.0009 10.7492 20.9872 10.7492 20.96C11.6071 21.4642 12.589 21.7774 13.6316 21.8183C11.9236 20.5782 10.8009 18.466 10.8009 16.0812C10.8009 14.8275 11.1136 13.6419 11.6639 12.6198C14.7983 16.7898 19.4843 19.529 24.7673 19.8151C24.6587 19.3109 24.6032 18.7796 24.6032 18.2481C24.6032 14.4461 27.4494 11.3662 30.961 11.3662C32.7891 11.3662 34.4403 12.1976 35.5992 13.5331C37.0501 13.2333 38.4093 12.661 39.6392 11.8706C39.1625 13.4786 38.156 14.8275 36.8408 15.6724C38.1276 15.5088 39.355 15.1412 40.4933 14.5961C39.6393 15.9724 38.5643 17.1851 37.3227 18.1526Z" fill="white"/>
</svg>
